<svg xmlns="http://www.w3.org/2000/svg" width="1254" height="836" viewBox="0 0 1254 836">
<g>
<path d="M 628.50 461.29 C629.60,461.55 621.95,461.78 611.50,461.79 C564.75,461.86 526.96,449.05 502.97,425.04 C489.52,411.58 483.47,398.28 482.38,379.81 C481.82,370.40 482.14,366.94 484.64,355.64 C485.26,352.86 485.11,352.92 478.89,357.96 C467.55,367.13 450.92,374.15 436.97,375.65 C431.33,376.25 419.33,374.33 413.50,371.89 C410.57,370.66 410.65,370.62 417.00,369.98 C430.67,368.62 440.35,364.05 454.35,352.34 C461.79,346.11 473.42,333.11 480.57,323.00 C492.58,306.03 507.91,288.65 520.77,277.40 C529.37,269.89 546.85,257.52 547.69,258.36 C547.95,258.61 545.88,260.98 543.09,263.61 C539.87,266.65 538.43,268.65 539.16,269.10 C539.97,269.60 540.01,270.91 539.32,273.66 C537.77,279.73 538.43,280.23 544.49,277.55 C547.44,276.24 550.11,275.44 550.42,275.76 C550.74,276.07 551.00,275.81 551.00,275.17 C551.00,274.52 551.45,274.00 551.99,274.00 C552.54,274.00 558.95,271.10 566.24,267.56 C584.99,258.45 608.74,250.91 632.50,246.54 C646.78,243.91 684.77,243.78 695.50,246.32 C710.19,249.81 712.08,250.56 715.45,254.24 C719.02,258.13 719.66,258.37 739.26,262.90 C741.88,263.50 746.70,264.00 749.97,264.00 C754.93,264.00 756.31,263.60 758.35,261.56 C759.69,260.22 760.54,258.87 760.23,258.56 C759.92,258.25 760.30,258.01 761.08,258.01 C762.71,258.02 766.68,265.65 765.62,266.71 C765.23,267.10 759.87,267.43 753.71,267.44 C745.00,267.46 739.04,266.76 727.00,264.30 C703.41,259.49 693.78,258.61 672.34,259.33 C661.98,259.67 650.12,260.58 646.00,261.35 C600.00,269.92 564.96,287.48 538.23,315.36 C515.88,338.69 507.33,364.92 514.99,386.72 C522.55,408.23 547.77,424.89 586.42,433.90 C590.22,434.78 593.53,436.08 593.76,436.79 C594.00,437.49 593.81,438.00 593.34,437.91 C590.80,437.46 589.81,438.15 590.29,440.01 C590.64,441.35 590.17,442.37 588.88,443.06 C585.92,444.65 587.21,445.51 596.22,447.96 C600.77,449.20 606.67,450.89 609.31,451.71 C614.01,453.17 614.08,453.25 612.35,455.16 C609.91,457.86 611.84,458.96 619.05,458.98 C622.10,458.99 625.03,459.41 625.55,459.90 C626.07,460.40 627.40,461.02 628.50,461.29 ZM 499.00 285.80 C493.77,289.96 485.79,297.05 481.25,301.55 C476.71,306.06 473.00,309.36 473.00,308.90 C473.00,306.34 490.79,282.20 498.92,273.72 C506.88,265.43 517.45,256.09 521.58,253.71 C522.79,253.02 522.83,255.84 521.64,257.77 C520.64,259.39 518.67,259.37 519.60,257.75 C520.00,257.06 519.94,256.85 519.46,257.28 C517.78,258.81 518.17,261.00 520.13,261.00 C521.20,261.00 523.05,261.90 524.23,263.00 C526.93,265.51 527.23,265.50 530.67,262.73 C534.42,259.71 542.90,255.58 545.90,255.31 L 548.31 255.10 L 546.19 256.58 C545.02,257.40 540.56,259.71 536.28,261.72 C526.11,266.50 510.85,276.35 499.00,285.80 Z" fill="rgb(3,76,154)"/>
<path d="M 763.45 260.39 C762.59,259.04 761.68,258.02 761.08,258.01 C760.30,258.01 759.92,258.25 760.23,258.56 C760.54,258.87 759.69,260.22 758.35,261.56 C756.31,263.60 754.93,264.00 749.97,264.00 C746.70,264.00 741.88,263.50 739.26,262.90 C719.66,258.37 719.02,258.13 715.45,254.24 C712.08,250.56 710.19,249.81 695.50,246.32 C684.77,243.78 646.78,243.91 632.50,246.54 C608.74,250.91 584.99,258.45 566.24,267.56 C558.95,271.10 552.54,274.00 551.99,274.00 C551.45,274.00 551.00,274.52 551.00,275.17 C551.00,275.81 550.74,276.07 550.42,275.76 C550.11,275.44 547.44,276.24 544.49,277.55 C538.43,280.23 537.77,279.73 539.32,273.66 C540.01,270.91 539.97,269.60 539.16,269.10 C538.43,268.65 539.87,266.65 543.09,263.61 C545.88,260.98 547.95,258.61 547.69,258.36 C547.35,258.01 544.20,259.89 540.03,262.74 C552.70,253.83 550.85,254.48 535.34,262.37 C523.72,268.28 511.00,276.52 499.78,285.18 C511.51,275.93 526.33,266.40 536.28,261.72 C540.56,259.71 545.02,257.40 546.19,256.58 L 548.31 255.10 L 545.90 255.31 C542.90,255.58 534.42,259.71 530.67,262.73 C527.23,265.50 526.93,265.51 524.23,263.00 C523.05,261.90 521.20,261.00 520.13,261.00 C518.17,261.00 517.78,258.81 519.46,257.28 C519.94,256.85 520.00,257.06 519.60,257.75 C518.67,259.37 520.64,259.39 521.64,257.77 C522.83,255.84 522.79,253.02 521.58,253.71 C520.46,254.36 518.88,255.51 517.00,257.01 C521.88,252.92 525.80,250.00 526.72,250.00 C527.42,250.00 528.00,249.66 528.00,249.25 C528.01,247.26 551.48,235.04 565.76,229.59 C576.62,225.45 594.33,220.71 607.00,218.56 C627.78,215.04 661.73,215.51 681.32,219.58 C690.54,221.50 692.49,221.29 686.66,219.01 C666.20,211.02 626.06,207.66 597.78,211.56 C587.03,213.04 566.70,217.63 560.68,219.92 C557.29,221.22 557.00,221.24 557.00,220.16 C557.00,217.83 578.75,208.90 595.01,204.56 C637.34,193.25 686.74,198.91 735.36,220.64 C754.79,229.32 764.96,237.13 769.14,246.59 C770.19,248.97 771.45,251.16 771.94,251.46 C772.43,251.76 772.50,253.24 772.10,254.75 C771.47,257.12 770.79,257.54 767.18,257.81 C763.62,258.07 762.64,258.38 763.45,260.39 ZM 411.11 569.13 L 402.50 586.50 L 393.73 586.79 C387.25,587.00 384.86,586.74 384.56,585.79 C383.87,583.58 381.08,566.13 378.99,551.00 C377.89,543.03 376.72,535.04 376.39,533.25 L 375.78 530.00 L 393.82 530.00 L 394.52 538.25 C394.90,542.79 395.75,551.45 396.40,557.50 L 397.59 568.50 L 417.01 530.00 L 430.91 530.00 L 431.52 533.75 C431.86,535.81 432.33,538.62 432.56,540.00 C433.00,542.58 433.10,543.32 435.08,558.67 L 436.26 567.83 L 445.59 548.92 L 454.92 530.00 L 463.46 530.00 C468.16,530.00 472.00,530.25 472.00,530.55 C472.00,531.35 443.98,584.29 442.78,585.75 C442.11,586.57 438.87,587.00 433.40,587.00 C432.48,587.00 431.66,587.02 430.92,587.03 C428.51,587.09 427.02,587.12 426.01,586.44 C424.06,585.12 423.92,581.14 422.47,569.50 C421.23,559.66 420.82,554.65 419.57,554.43 C418.45,554.23 416.65,557.89 412.98,565.35 C412.40,566.52 411.78,567.78 411.11,569.13 ZM 628.50 461.29 C627.40,461.02 626.07,460.40 625.55,459.90 C625.03,459.41 622.10,458.99 619.05,458.98 C611.84,458.96 609.91,457.86 612.35,455.16 C614.08,453.25 614.01,453.17 609.31,451.71 C606.67,450.89 600.77,449.20 596.22,447.96 C587.21,445.51 585.92,444.65 588.88,443.06 C590.17,442.37 590.64,441.35 590.29,440.01 C589.81,438.15 590.80,437.46 593.34,437.91 C593.81,438.00 594.00,437.49 593.76,436.79 C593.53,436.08 590.22,434.78 586.42,433.90 C575.66,431.39 565.94,428.29 557.35,424.65 C569.84,429.82 584.85,434.17 596.25,435.54 C599.41,435.92 602.00,436.59 602.00,437.04 C602.00,437.48 614.94,437.74 630.75,437.61 C661.32,437.35 671.08,436.39 694.00,431.35 C723.34,424.90 751.87,413.41 775.36,398.59 C780.23,395.52 784.49,393.00 784.82,393.00 C786.54,393.00 773.13,405.20 763.50,412.41 C749.33,423.01 741.41,427.90 725.89,435.63 C699.23,448.91 674.02,456.62 644.70,460.45 C628.21,462.61 596.16,462.39 581.00,460.02 C577.90,459.53 574.88,459.00 571.92,458.41 C547.65,453.95 527.05,445.15 511.11,432.34 C508.25,430.04 505.53,427.61 502.97,425.04 C505.53,427.60 508.24,430.03 511.11,432.34 C526.67,444.83 546.73,453.43 571.92,458.41 C584.22,460.67 597.46,461.81 611.50,461.79 C621.95,461.78 629.60,461.55 628.50,461.29 ZM 350.42 586.04 C340.18,590.04 316.25,589.52 306.34,585.09 C304.41,584.23 304.28,583.73 305.12,580.31 C305.63,578.22 306.33,575.03 306.66,573.23 C307.11,570.83 307.70,570.08 308.88,570.42 C319.93,573.62 323.72,574.30 330.99,574.39 C340.84,574.52 346.62,572.35 348.82,567.71 C351.70,561.65 347.31,557.26 334.09,552.95 C324.40,549.80 318.43,546.43 315.31,542.34 C312.80,539.05 312.50,537.84 312.50,531.08 C312.50,524.84 312.94,522.72 315.00,519.09 C320.51,509.38 330.63,504.76 346.23,504.85 C359.66,504.93 373.00,507.54 373.00,510.08 C373.00,511.81 370.62,521.56 370.02,522.26 C369.67,522.68 365.85,522.11 361.53,521.01 C346.34,517.12 333.84,519.14 331.03,525.92 C328.56,531.88 332.16,535.38 345.00,539.49 C354.06,542.38 362.06,547.10 365.15,551.37 C367.49,554.59 368.00,556.33 368.00,560.97 C368.00,573.10 362.13,581.47 350.42,586.04 ZM 522.83 567.25 L 519.51 587.00 L 501.78 587.00 L 502.48 584.25 C503.86,578.78 509.00,548.43 509.00,545.75 C509.00,543.16 508.74,543.00 504.50,543.00 C499.44,543.00 499.40,542.91 501.08,535.05 L 502.17 530.00 L 511.82 530.00 L 512.53 525.75 C513.35,520.82 516.30,514.51 519.36,511.15 C524.10,505.96 532.98,503.52 543.66,504.50 C553.50,505.40 554.21,506.08 552.62,513.00 C551.92,516.03 550.93,518.49 550.42,518.48 C549.92,518.46 547.35,518.10 544.72,517.66 C536.06,516.23 531.58,519.07 529.62,527.25 L 528.96 530.00 L 548.25 530.00 L 547.56 533.25 C547.18,535.04 546.62,537.96 546.30,539.75 L 545.74 543.00 L 536.48 543.00 C527.70,543.00 527.19,543.12 526.69,545.25 C526.39,546.49 524.66,556.39 522.83,567.25 ZM 587.69 587.39 C586.48,587.72 582.58,588.20 579.00,588.45 C568.97,589.17 563.28,587.15 559.95,581.69 C557.46,577.60 557.47,572.27 560.00,559.00 C561.10,553.23 562.00,547.27 562.00,545.75 C562.00,543.12 561.79,543.00 557.00,543.00 C551.38,543.00 551.38,543.00 553.08,535.05 L 554.17 530.00 L 559.47 530.00 L 559.78 530.00 C562.06,530.00 563.39,530.00 564.26,529.37 C565.54,528.43 565.81,526.10 566.56,520.35 L 567.23 515.20 L 575.87 513.19 C580.61,512.09 584.67,511.35 584.89,511.56 C585.22,511.89 584.42,516.92 582.38,527.25 L 581.84 530.00 L 599.00 530.00 L 599.00 532.63 C599.00,534.08 598.48,537.01 597.84,539.13 L 596.68 543.00 L 588.36 543.00 C580.54,543.00 580.01,543.14 579.54,545.25 C579.27,546.49 578.14,552.65 577.03,558.93 C575.17,569.47 575.14,570.56 576.60,572.80 C578.03,574.98 578.72,575.18 583.35,574.75 C586.18,574.48 589.29,573.93 590.25,573.52 C592.36,572.63 592.51,574.51 590.94,581.85 C590.13,585.60 589.35,586.94 587.69,587.39 ZM 486.02 585.75 C486.00,586.65 483.55,587.00 477.14,587.00 C468.51,587.00 468.29,586.94 468.64,584.75 C469.54,579.22 477.14,535.22 477.62,532.75 C478.16,530.01 478.18,530.00 486.66,530.00 L 495.16 530.00 L 494.60 532.75 C493.12,540.11 486.05,583.76 486.02,585.75 ZM 497.07 519.42 C495.51,521.29 481.56,521.72 480.45,519.92 C479.64,518.61 480.76,509.01 481.95,507.08 C482.94,505.48 492.48,504.40 496.57,505.43 C499.14,506.07 499.22,506.30 498.81,511.96 C498.58,515.19 497.79,518.54 497.07,519.42 ZM 746.35 244.54 C748.78,246.23 749.93,246.05 751.39,243.75 C752.81,241.49 749.53,238.00 745.98,238.00 C743.63,238.00 743.34,238.33 743.76,240.53 C744.03,241.92 745.19,243.72 746.35,244.54 ZM 537.66 414.06 C526.74,406.55 519.17,397.70 515.39,387.80 C519.27,397.43 526.67,406.11 537.66,414.06 ZM 548.93 305.14 C560.67,294.88 573.84,286.30 588.61,279.30 C573.98,286.36 560.41,295.26 548.93,305.14 ZM 502.60 269.99 C501.34,271.24 500.10,272.49 498.92,273.72 C494.96,277.85 488.72,285.68 483.36,292.93 C488.47,285.94 494.31,278.51 497.99,274.64 C499.36,273.19 500.93,271.61 502.60,269.99 ZM 642.34 262.05 C643.55,261.81 644.77,261.58 646.00,261.35 C648.56,260.87 654.11,260.34 660.43,259.92 C653.94,260.38 648.12,261.05 642.34,262.05 ZM 473.02 308.94 C473.21,309.07 475.20,307.36 477.98,304.73 C475.19,307.69 473.00,309.62 473.00,309.08 C473.00,309.04 473.01,308.99 473.02,308.94 ZM 536.29 265.35 C532.61,267.98 528.59,271.00 525.11,273.79 C528.07,271.29 530.90,269.09 533.52,267.27 C534.49,266.60 535.42,265.96 536.29,265.35 ZM 512.71 363.22 C513.46,357.40 515.11,351.47 517.64,345.53 C517.46,345.97 517.29,346.41 517.12,346.84 C514.92,352.56 513.44,358.01 512.71,363.22 ZM 765.66 266.67 C765.99,266.24 765.71,265.01 765.13,263.62 C765.80,265.01 766.05,266.28 765.69,266.64 C765.68,266.65 765.67,266.66 765.66,266.67 ZM 482.52 320.28 C481.86,321.19 481.21,322.09 480.57,323.00 C478.55,325.86 476.16,328.95 473.62,332.05 C476.16,328.95 478.55,325.86 480.57,323.00 C481.21,322.10 481.86,321.19 482.52,320.28 Z" fill="rgb(11,150,214)"/>
<path d="M 542.00 387.00 C541.36,390.58 540.54,395.28 540.17,397.46 L 539.50 401.42 L 535.15 395.96 C532.75,392.96 529.66,388.27 528.27,385.54 C526.06,381.18 525.83,379.77 526.37,373.92 C527.33,363.61 534.40,346.73 543.31,333.50 C547.85,326.77 565.04,309.27 569.28,307.07 C571.93,305.69 572.20,305.79 576.03,309.53 C579.68,313.09 580.14,313.28 581.61,311.82 C583.08,310.35 582.98,309.83 580.48,305.56 C578.98,303.00 577.92,300.78 578.13,300.62 C578.33,300.46 581.23,298.70 584.56,296.71 C601.99,286.29 624.05,279.26 646.68,276.93 C661.15,275.44 680.63,276.82 694.30,280.30 L 699.02 281.51 L 695.51 288.84 C689.74,300.88 690.83,301.80 699.57,292.29 L 707.11 284.07 L 712.05 286.02 C723.92,290.70 740.59,300.61 749.40,308.22 L 753.29 311.59 L 708.65 338.82 L 703.19 334.38 C682.82,317.78 655.70,309.92 629.43,312.98 C617.84,314.34 601.80,319.36 592.16,324.67 C566.46,338.80 546.08,364.12 542.00,387.00 ZM 657.60 585.12 C650.24,587.11 643.81,587.50 623.18,587.23 L 602.85 586.96 L 603.41 584.23 C604.16,580.54 607.11,563.39 611.96,534.50 C614.18,521.30 616.23,509.49 616.52,508.25 C617.03,506.02 617.19,506.00 635.08,506.00 C653.66,506.00 665.54,507.21 670.13,509.57 C677.02,513.12 680.37,522.20 678.01,530.95 C676.67,535.94 670.09,543.51 666.27,544.47 L 663.61 545.14 L 667.55 547.32 C670.28,548.83 672.24,551.00 673.91,554.36 C676.15,558.88 676.24,559.63 675.17,565.35 C673.31,575.39 666.90,582.60 657.60,585.12 ZM 657.50 421.09 C653.00,423.19 643.66,423.48 638.06,421.70 C632.84,420.03 626.41,413.31 625.00,408.04 C622.83,399.93 625.77,391.04 632.62,385.03 C637.43,380.81 641.23,379.26 651.05,377.55 C661.03,375.81 665.47,373.42 723.50,338.64 C733.40,332.71 745.44,325.45 750.25,322.52 C755.06,319.58 759.00,317.48 759.00,317.84 C759.00,318.20 753.26,323.87 746.25,330.43 C739.24,337.00 720.14,355.37 703.81,371.26 C677.15,397.20 673.81,400.80 671.11,406.59 C667.75,413.75 663.51,418.28 657.50,421.09 ZM 762.05 389.14 C746.96,392.91 734.30,396.00 733.93,396.00 C733.56,396.00 732.96,393.34 732.59,390.09 C731.74,382.60 728.54,370.98 725.90,365.81 L 723.87 361.82 L 733.86 352.39 C745.34,341.56 764.15,325.00 764.96,325.01 C766.12,325.02 776.72,341.94 780.83,350.36 C785.10,359.08 790.34,376.68 789.78,380.39 C789.54,381.98 785.26,383.34 762.05,389.14 ZM 897.81 572.50 L 895.42 586.50 L 886.79 586.79 C878.95,587.05 878.20,586.91 878.56,585.29 C878.78,584.30 880.10,576.53 881.50,568.00 C882.90,559.47 884.67,549.12 885.43,545.00 C886.18,540.88 888.07,530.41 889.61,521.75 L 892.42 506.00 L 900.71 506.00 C905.27,506.00 909.00,506.34 908.99,506.75 C908.97,508.79 903.95,536.27 903.45,537.07 C903.14,537.58 903.34,538.00 903.91,538.00 C904.47,538.00 905.39,537.13 905.96,536.08 C906.53,535.02 909.56,532.89 912.71,531.35 C917.33,529.09 919.79,528.56 925.49,528.56 C933.36,528.56 937.74,530.41 941.40,535.32 C943.99,538.80 944.54,550.34 942.55,559.50 C941.83,562.80 940.45,570.34 939.48,576.25 L 937.72 587.00 L 929.36 587.00 C924.17,587.00 921.00,586.60 921.00,585.95 C921.00,585.37 922.20,578.28 923.66,570.20 C927.13,551.02 927.20,547.39 924.14,544.91 C921.30,542.61 915.08,542.39 911.10,544.45 C907.54,546.29 902.73,551.74 901.30,555.55 C900.70,557.17 899.12,564.80 897.81,572.50 ZM 724.91 587.59 C707.61,590.64 694.37,587.83 688.01,579.74 C684.17,574.86 683.06,570.68 683.39,562.37 C683.94,548.92 690.39,538.16 701.19,532.70 C716.71,524.86 736.96,527.92 742.79,539.00 C744.89,542.98 745.12,544.55 744.80,552.50 C744.59,557.45 744.08,562.06 743.66,562.75 C743.08,563.69 737.51,564.00 721.44,564.00 L 720.08 564.00 C705.51,564.00 700.73,564.00 700.03,565.68 C699.69,566.51 700.33,567.74 701.28,569.57 C701.33,569.68 701.39,569.80 701.46,569.91 C704.66,576.11 715.23,577.65 729.51,574.00 C733.81,572.90 737.49,572.16 737.68,572.35 C738.35,573.02 735.67,583.50 734.50,584.80 C733.85,585.52 729.54,586.77 724.91,587.59 ZM 766.81 582.25 L 765.83 587.00 L 757.42 587.00 C752.79,587.00 749.00,586.80 749.00,586.55 C749.00,586.30 749.87,581.47 750.94,575.80 C752.01,570.14 754.06,558.30 755.51,549.50 C756.95,540.70 758.36,532.71 758.64,531.75 C759.06,530.27 760.38,530.00 767.20,530.00 L 775.26 530.00 L 774.58 534.23 L 773.90 538.47 L 776.70 535.84 C787.81,525.43 805.94,525.89 812.29,536.75 C815.42,542.12 814.29,556.15 808.42,584.75 C807.99,586.87 807.48,587.00 799.40,587.00 L 790.84 587.00 L 791.44 584.25 C793.27,575.78 797.00,553.15 797.00,550.48 C797.00,548.45 796.14,546.54 794.55,545.04 C792.48,543.10 791.32,542.81 787.17,543.21 C777.08,544.18 772.23,550.72 769.53,567.00 C768.57,572.78 767.35,579.64 766.81,582.25 ZM 864.69 586.62 C862.59,587.34 856.97,588.16 852.19,588.43 C839.49,589.15 832.93,587.10 827.25,580.64 C822.92,575.70 821.69,571.10 822.19,561.62 C822.55,554.80 823.15,552.49 825.98,547.18 C830.08,539.49 836.32,533.80 843.85,530.88 C852.94,527.35 871.44,528.06 876.60,532.13 C877.39,532.75 877.29,534.61 876.24,538.75 C875.44,541.91 874.65,544.64 874.49,544.82 C874.33,544.99 871.82,544.43 868.92,543.57 C852.15,538.59 839.09,547.02 839.02,562.85 C839.00,567.61 839.37,568.57 842.40,571.60 C845.61,574.81 846.17,575.00 852.65,574.97 C856.59,574.95 861.73,574.16 864.75,573.12 L 870.00 571.31 L 869.94 574.40 C869.91,576.11 869.57,579.25 869.19,581.40 C868.59,584.79 868.00,585.47 864.69,586.62 ZM 624.62 564.75 L 623.28 573.00 L 635.39 573.00 C644.92,573.00 648.25,572.62 651.00,571.25 C655.40,569.05 657.98,564.18 657.10,559.75 C656.04,554.47 651.83,553.00 637.75,553.00 C627.23,553.00 626.00,553.18 625.98,554.75 C625.97,555.71 625.36,560.21 624.62,564.75 ZM 629.02 539.25 C628.99,540.41 645.99,540.13 650.50,538.90 C661.04,536.03 664.32,523.81 655.24,521.27 C652.06,520.38 633.44,520.22 632.59,521.08 C632.11,521.56 629.07,536.98 629.02,539.25 ZM 763.45 260.39 C762.64,258.38 763.62,258.07 767.18,257.81 C770.79,257.54 771.47,257.12 772.10,254.75 C772.50,253.24 772.43,251.76 771.94,251.46 C771.46,251.17 770.23,249.04 769.19,246.70 C771.36,250.69 773.68,252.89 781.01,258.17 C792.99,266.77 799.60,272.30 798.40,272.70 C797.88,272.87 790.94,271.83 782.98,270.38 C772.78,268.53 764.66,267.71 755.50,267.60 C750.96,267.55 747.24,267.38 743.43,266.99 C746.81,267.32 750.01,267.45 753.71,267.44 C759.87,267.43 765.23,267.10 765.62,266.71 C765.63,266.70 765.65,266.68 765.66,266.67 C765.67,266.66 765.68,266.65 765.69,266.64 C766.05,266.28 765.80,265.01 765.13,263.62 C764.69,262.55 764.09,261.38 763.45,260.39 ZM 702.51 550.75 L 701.87 553.00 L 729.00 553.00 L 729.00 549.72 C729.00,542.71 722.31,538.76 714.13,540.96 C709.43,542.23 703.53,547.20 702.51,550.75 ZM 641.26 407.06 C643.01,408.71 644.35,409.06 647.40,408.66 C652.50,407.99 655.01,405.38 655.19,400.54 C655.31,397.48 654.77,396.20 652.61,394.34 C648.17,390.52 642.21,391.75 639.47,397.06 C637.54,400.79 638.14,404.11 641.26,407.06 ZM 620.67 199.86 C640.35,197.69 660.55,198.81 681.73,203.22 C660.76,198.96 640.19,197.81 620.67,199.86 ZM 765.07 240.05 C762.33,236.72 758.64,233.54 753.80,230.37 C757.68,232.82 760.76,235.16 762.78,237.26 C763.45,237.95 764.25,238.93 765.07,240.05 ZM 576.00 210.68 C580.22,209.09 584.44,207.66 588.68,206.39 C581.25,208.68 573.42,211.58 567.41,214.16 C569.99,213.03 572.90,211.84 576.00,210.68 Z" fill="rgb(127,99,50)"/>
<path d="M 0.00 418.00 L 0.00 0.00 L 627.00 0.00 L 1254.00 0.00 L 1254.00 418.00 L 1254.00 836.00 L 627.00 836.00 L 0.00 836.00 L 0.00 418.00 ZM 350.42 586.04 C362.13,581.47 368.00,573.10 368.00,560.97 C368.00,556.33 367.49,554.59 365.15,551.37 C362.06,547.10 354.06,542.38 345.00,539.49 C332.16,535.38 328.56,531.88 331.03,525.92 C333.84,519.14 346.34,517.12 361.53,521.01 C365.85,522.11 369.67,522.68 370.02,522.26 C370.62,521.56 373.00,511.81 373.00,510.08 C373.00,507.54 359.66,504.93 346.23,504.85 C330.63,504.76 320.51,509.38 315.00,519.09 C312.94,522.72 312.50,524.84 312.50,531.08 C312.50,537.84 312.80,539.05 315.31,542.34 C318.43,546.43 324.40,549.80 334.09,552.95 C347.31,557.26 351.70,561.65 348.82,567.71 C346.62,572.35 340.84,574.52 330.99,574.39 C323.72,574.30 319.93,573.62 308.88,570.42 C307.70,570.08 307.11,570.83 306.66,573.23 C306.33,575.03 305.63,578.22 305.12,580.31 C304.28,583.73 304.41,584.23 306.34,585.09 C316.25,589.52 340.18,590.04 350.42,586.04 ZM 587.69 587.39 C589.35,586.94 590.13,585.60 590.94,581.85 C592.51,574.51 592.36,572.63 590.25,573.52 C589.29,573.93 586.18,574.48 583.35,574.75 C578.72,575.18 578.03,574.98 576.60,572.80 C575.14,570.56 575.17,569.47 577.03,558.93 C578.14,552.65 579.27,546.49 579.54,545.25 C580.01,543.14 580.54,543.00 588.36,543.00 L 596.68 543.00 L 597.84 539.13 C598.48,537.01 599.00,534.08 599.00,532.63 L 599.00 530.00 L 590.42 530.00 L 581.84 530.00 L 582.38 527.25 C584.42,516.92 585.22,511.89 584.89,511.56 C584.67,511.35 580.61,512.09 575.87,513.19 L 567.23 515.20 L 566.56 520.35 C565.28,530.18 565.41,530.00 559.47,530.00 L 554.17 530.00 L 553.08 535.05 C551.38,543.00 551.38,543.00 557.00,543.00 C561.79,543.00 562.00,543.12 562.00,545.75 C562.00,547.27 561.10,553.23 560.00,559.00 C557.47,572.27 557.46,577.60 559.95,581.69 C563.28,587.15 568.97,589.17 579.00,588.45 C582.58,588.20 586.48,587.72 587.69,587.39 ZM 724.91 587.59 C729.54,586.77 733.85,585.52 734.50,584.80 C735.67,583.50 738.35,573.02 737.68,572.35 C737.49,572.16 733.81,572.90 729.51,574.00 C715.23,577.65 704.66,576.11 701.46,569.91 C698.33,563.88 697.93,564.00 721.44,564.00 C737.51,564.00 743.08,563.69 743.66,562.75 C744.08,562.06 744.59,557.45 744.80,552.50 C745.12,544.55 744.89,542.98 742.79,539.00 C736.96,527.92 716.71,524.86 701.19,532.70 C690.39,538.16 683.94,548.92 683.39,562.37 C683.06,570.68 684.17,574.86 688.01,579.74 C694.37,587.83 707.61,590.64 724.91,587.59 ZM 864.69 586.62 C868.00,585.47 868.59,584.79 869.19,581.40 C869.57,579.25 869.91,576.11 869.94,574.40 L 870.00 571.31 L 864.75 573.12 C861.73,574.16 856.59,574.95 852.65,574.97 C846.17,575.00 845.61,574.81 842.40,571.60 C839.37,568.57 839.00,567.61 839.02,562.85 C839.09,547.02 852.15,538.59 868.92,543.57 C871.82,544.43 874.33,544.99 874.49,544.82 C874.65,544.64 875.44,541.91 876.24,538.75 C877.29,534.61 877.39,532.75 876.60,532.13 C871.44,528.06 852.94,527.35 843.85,530.88 C836.32,533.80 830.08,539.49 825.98,547.18 C823.15,552.49 822.55,554.80 822.19,561.62 C821.69,571.10 822.92,575.70 827.25,580.64 C832.93,587.10 839.49,589.15 852.19,588.43 C856.97,588.16 862.59,587.34 864.69,586.62 ZM 657.60 585.12 C666.90,582.60 673.31,575.39 675.17,565.35 C676.24,559.63 676.15,558.88 673.91,554.36 C672.24,551.00 670.28,548.83 667.55,547.32 L 663.61 545.14 L 666.27 544.47 C670.09,543.51 676.67,535.94 678.01,530.95 C680.37,522.20 677.02,513.12 670.13,509.57 C665.54,507.21 653.66,506.00 635.08,506.00 C617.19,506.00 617.03,506.02 616.52,508.25 C616.23,509.49 614.18,521.30 611.96,534.50 C607.11,563.39 604.16,580.54 603.41,584.23 L 602.85 586.96 L 623.18 587.23 C643.81,587.50 650.24,587.11 657.60,585.12 ZM 411.11 569.13 C420.86,549.48 419.96,549.45 422.47,569.50 C424.91,589.01 423.65,587.00 433.40,587.00 C438.87,587.00 442.11,586.57 442.78,585.75 C443.98,584.29 472.00,531.35 472.00,530.55 C472.00,530.25 468.16,530.00 463.46,530.00 L 454.92 530.00 L 445.59 548.92 L 436.26 567.83 L 435.08 558.67 C433.10,543.32 433.00,542.58 432.56,540.00 C432.33,538.62 431.86,535.81 431.52,533.75 L 430.91 530.00 L 423.96 530.00 L 417.01 530.00 L 407.30 549.25 L 397.59 568.50 L 396.40 557.50 C395.75,551.45 394.90,542.79 394.52,538.25 L 393.82 530.00 L 384.80 530.00 L 375.78 530.00 L 376.39 533.25 C376.72,535.04 377.89,543.03 378.99,551.00 C381.08,566.13 383.87,583.58 384.56,585.79 C384.86,586.74 387.25,587.00 393.73,586.79 L 402.50 586.50 L 411.11 569.13 ZM 486.02 585.75 C486.05,583.76 493.12,540.11 494.60,532.75 L 495.16 530.00 L 486.66 530.00 C478.18,530.00 478.16,530.01 477.62,532.75 C477.14,535.22 469.54,579.22 468.64,584.75 C468.29,586.94 468.51,587.00 477.14,587.00 C483.55,587.00 486.00,586.65 486.02,585.75 ZM 522.83 567.25 C524.66,556.39 526.39,546.49 526.69,545.25 C527.19,543.12 527.70,543.00 536.48,543.00 L 545.74 543.00 L 546.30 539.75 C546.62,537.96 547.18,535.04 547.56,533.25 L 548.25 530.00 L 538.61 530.00 L 528.96 530.00 L 529.62 527.25 C531.58,519.07 536.06,516.23 544.72,517.66 C547.35,518.10 549.92,518.46 550.42,518.48 C550.93,518.49 551.92,516.03 552.62,513.00 C554.21,506.08 553.50,505.40 543.66,504.50 C532.98,503.52 524.10,505.96 519.36,511.15 C516.30,514.51 513.35,520.82 512.53,525.75 L 511.82 530.00 L 506.99 530.00 L 502.17 530.00 L 501.08 535.05 C499.40,542.91 499.44,543.00 504.50,543.00 C508.74,543.00 509.00,543.16 509.00,545.75 C509.00,548.43 503.86,578.78 502.48,584.25 L 501.78 587.00 L 510.65 587.00 L 519.51 587.00 L 522.83 567.25 ZM 766.81 582.25 C767.35,579.64 768.57,572.78 769.53,567.00 C772.23,550.72 777.08,544.18 787.17,543.21 C791.32,542.81 792.48,543.10 794.55,545.04 C796.14,546.54 797.00,548.45 797.00,550.48 C797.00,553.15 793.27,575.78 791.44,584.25 L 790.84 587.00 L 799.40 587.00 C807.48,587.00 807.99,586.87 808.42,584.75 C814.29,556.15 815.42,542.12 812.29,536.75 C805.94,525.89 787.81,525.43 776.70,535.84 L 773.90 538.47 L 774.58 534.23 L 775.26 530.00 L 767.20 530.00 C760.38,530.00 759.06,530.27 758.64,531.75 C758.36,532.71 756.95,540.70 755.51,549.50 C754.06,558.30 752.01,570.14 750.94,575.80 C749.87,581.47 749.00,586.30 749.00,586.55 C749.00,586.80 752.79,587.00 757.42,587.00 L 765.83 587.00 L 766.81 582.25 ZM 897.81 572.50 C899.12,564.80 900.70,557.17 901.30,555.55 C902.73,551.74 907.54,546.29 911.10,544.45 C915.08,542.39 921.30,542.61 924.14,544.91 C927.20,547.39 927.13,551.02 923.66,570.20 C922.20,578.28 921.00,585.37 921.00,585.95 C921.00,586.60 924.17,587.00 929.36,587.00 L 937.72 587.00 L 939.48 576.25 C940.45,570.34 941.83,562.80 942.55,559.50 C944.54,550.34 943.99,538.80 941.40,535.32 C937.74,530.41 933.36,528.56 925.49,528.56 C919.79,528.56 917.33,529.09 912.71,531.35 C909.56,532.89 906.53,535.02 905.96,536.08 C905.39,537.13 904.47,538.00 903.91,538.00 C903.34,538.00 903.14,537.58 903.45,537.07 C903.95,536.27 908.97,508.79 908.99,506.75 C909.00,506.34 905.27,506.00 900.71,506.00 L 892.42 506.00 L 889.61 521.75 C888.07,530.41 886.18,540.88 885.43,545.00 C884.67,549.12 882.90,559.47 881.50,568.00 C880.10,576.53 878.78,584.30 878.56,585.29 C878.20,586.91 878.95,587.05 886.79,586.79 L 895.42 586.50 L 897.81 572.50 ZM 497.07 519.42 C497.79,518.54 498.58,515.19 498.81,511.96 C499.22,506.30 499.14,506.07 496.57,505.43 C492.48,504.40 482.94,505.48 481.95,507.08 C480.76,509.01 479.64,518.61 480.45,519.92 C481.56,521.72 495.51,521.29 497.07,519.42 ZM 644.70 460.45 C674.02,456.62 699.23,448.91 725.89,435.63 C741.41,427.90 749.33,423.01 763.50,412.41 C773.13,405.20 786.54,393.00 784.82,393.00 C784.49,393.00 780.23,395.52 775.36,398.59 C751.87,413.41 723.34,424.90 694.00,431.35 C671.08,436.39 661.32,437.35 630.75,437.61 C614.94,437.74 602.00,437.48 602.00,437.04 C602.00,436.59 599.41,435.92 596.25,435.54 C578.72,433.43 552.65,424.29 540.32,415.93 C513.44,397.69 506.02,375.62 517.12,346.84 C529.01,316.00 567.99,284.25 611.19,270.20 C634.82,262.52 648.29,260.12 672.34,259.33 C693.78,258.61 703.40,259.49 727.00,264.30 C739.18,266.78 745.28,267.49 755.50,267.60 C764.66,267.71 772.78,268.53 782.98,270.38 C790.94,271.83 797.88,272.87 798.40,272.70 C799.60,272.30 792.99,266.77 781.01,258.17 C773.28,252.61 771.13,250.46 768.84,246.04 C767.31,243.08 764.59,239.13 762.78,237.26 C755.81,230.03 736.38,219.99 714.87,212.50 C664.10,194.83 619.61,194.25 576.00,210.68 C565.47,214.64 557.00,218.87 557.00,220.16 C557.00,221.24 557.29,221.22 560.68,219.92 C566.70,217.63 587.03,213.04 597.78,211.56 C626.06,207.66 666.20,211.02 686.66,219.01 C692.49,221.29 690.54,221.50 681.32,219.58 C661.73,215.51 627.78,215.04 607.00,218.56 C594.33,220.71 576.62,225.45 565.76,229.59 C551.48,235.04 528.01,247.26 528.00,249.25 C528.00,249.66 527.42,250.00 526.72,250.00 C524.63,250.00 507.14,264.99 497.99,274.64 C490.27,282.77 473.00,306.57 473.00,309.08 C473.00,309.65 475.49,307.42 478.54,304.13 C491.75,289.86 515.21,272.62 535.34,262.37 C553.12,253.32 552.95,253.80 533.52,267.27 C518.20,277.90 495.77,301.51 480.57,323.00 C473.43,333.09 461.80,346.11 454.35,352.34 C440.35,364.05 430.67,368.62 417.00,369.98 C410.65,370.62 410.57,370.66 413.50,371.89 C419.33,374.33 431.33,376.25 436.97,375.65 C450.92,374.15 467.55,367.13 478.89,357.96 C485.11,352.92 485.26,352.86 484.64,355.64 C482.14,366.94 481.82,370.40 482.38,379.81 C483.47,398.28 489.52,411.58 502.97,425.04 C521.08,443.18 546.63,454.63 581.00,460.02 C596.16,462.39 628.21,462.61 644.70,460.45 ZM 657.50 421.09 C663.51,418.28 667.75,413.75 671.11,406.59 C673.81,400.80 677.15,397.20 703.81,371.26 C720.14,355.37 739.24,337.00 746.25,330.43 C753.26,323.87 759.00,318.20 759.00,317.84 C759.00,317.48 755.06,319.58 750.25,322.52 C745.44,325.45 733.40,332.71 723.50,338.64 C665.47,373.42 661.03,375.81 651.05,377.55 C641.23,379.26 637.43,380.81 632.62,385.03 C625.77,391.04 622.83,399.93 625.00,408.04 C626.41,413.31 632.84,420.03 638.06,421.70 C643.66,423.48 653.00,423.19 657.50,421.09 ZM 542.00 387.00 C546.08,364.12 566.46,338.80 592.16,324.67 C601.80,319.36 617.84,314.34 629.43,312.98 C655.70,309.92 682.82,317.78 703.19,334.38 L 708.65 338.82 L 730.97 325.21 L 753.29 311.59 L 749.40 308.22 C740.59,300.61 723.92,290.70 712.05,286.02 L 707.11 284.07 L 699.57 292.29 C690.83,301.80 689.74,300.88 695.51,288.84 L 699.02 281.51 L 694.30 280.30 C680.63,276.82 661.15,275.44 646.68,276.93 C624.05,279.26 601.99,286.29 584.56,296.71 C581.23,298.70 578.33,300.46 578.13,300.62 C577.92,300.78 578.98,303.00 580.48,305.56 C582.98,309.83 583.08,310.35 581.61,311.82 C580.14,313.28 579.68,313.09 576.03,309.53 C572.20,305.79 571.93,305.69 569.28,307.07 C565.04,309.27 547.85,326.77 543.31,333.50 C534.40,346.73 527.33,363.61 526.37,373.92 C525.83,379.77 526.06,381.18 528.27,385.54 C529.66,388.27 532.75,392.96 535.15,395.96 L 539.50 401.42 L 540.17 397.46 C540.54,395.28 541.36,390.58 542.00,387.00 ZM 762.05 389.14 C785.26,383.34 789.54,381.98 789.78,380.39 C790.34,376.68 785.10,359.08 780.83,350.36 C776.72,341.94 766.12,325.02 764.96,325.01 C764.15,325.00 745.34,341.56 733.86,352.39 L 723.87 361.82 L 725.90 365.81 C728.54,370.98 731.74,382.60 732.59,390.09 C732.96,393.34 733.56,396.00 733.93,396.00 C734.30,396.00 746.96,392.91 762.05,389.14 ZM 702.51 550.75 C703.53,547.20 709.43,542.23 714.13,540.96 C722.31,538.76 729.00,542.71 729.00,549.72 L 729.00 553.00 L 715.43 553.00 L 701.87 553.00 L 702.51 550.75 ZM 624.62 564.75 C625.36,560.21 625.97,555.71 625.98,554.75 C626.00,553.18 627.23,553.00 637.75,553.00 C651.83,553.00 656.04,554.47 657.10,559.75 C657.98,564.18 655.40,569.05 651.00,571.25 C648.25,572.62 644.92,573.00 635.39,573.00 L 623.28 573.00 L 624.62 564.75 ZM 629.02 539.25 C629.07,536.98 632.11,521.56 632.59,521.08 C633.44,520.22 652.06,520.38 655.24,521.27 C664.32,523.81 661.04,536.03 650.50,538.90 C645.99,540.13 628.99,540.41 629.02,539.25 ZM 746.35 244.54 C745.19,243.72 744.03,241.92 743.76,240.53 C743.34,238.33 743.63,238.00 745.98,238.00 C749.53,238.00 752.81,241.49 751.39,243.75 C749.93,246.05 748.78,246.23 746.35,244.54 ZM 641.26 407.06 C638.14,404.11 637.54,400.79 639.47,397.06 C642.21,391.75 648.17,390.52 652.61,394.34 C654.77,396.20 655.31,397.48 655.19,400.54 C655.01,405.38 652.50,407.99 647.40,408.66 C644.35,409.06 643.01,408.71 641.26,407.06 Z" fill="rgb(253,253,253)"/>
</g>
</svg>